<mxfile host="app.diagrams.net" modified="2024-06-16T21:58:12.887Z" agent="Mozilla/5.0 (Windows NT 10.0; Win64; x64) AppleWebKit/537.36 (KHTML, like Gecko) Chrome/126.0.0.0 Safari/537.36" version="24.5.4" etag="Nw86BE2mqhO0dT05bjy0" type="device">
  <diagram id="bZ5qnCtFSmz34LPYj8fW" name="Page-1">
    <mxGraphModel dx="6136" dy="1944" grid="1" gridSize="10" guides="1" tooltips="1" connect="1" arrows="1" fold="1" page="0" pageScale="1" pageWidth="850" pageHeight="1100" background="none" math="0" shadow="0">
      <root>
        <mxCell id="0" />
        <mxCell id="1" parent="0" />
        <mxCell id="node0" value="&lt;p style=&quot;margin:0px;margin-top:4px;text-align:center;&quot;&gt;&lt;b&gt;AddNewProductCategoryRequest&lt;/b&gt;&lt;/p&gt;&lt;hr size=&quot;1&quot;/&gt;&lt;p style=&quot;margin:0 0 0 4px;line-height:1.6;&quot;&gt;- category: String&lt;br/&gt;- parentId: Integer&lt;/p&gt;&lt;hr size=&quot;1&quot;/&gt;&lt;p style=&quot;margin:0 0 0 4px;line-height:1.6;&quot;&gt;+ toString(): String&lt;br/&gt;+ hashCode(): int&lt;br/&gt;+ builder(): AddNewProductCategoryRequestBuilder&lt;br/&gt;+ setCategory(String): void&lt;br/&gt;+ getCategory(): String&lt;br/&gt;+ setParentId(Integer): void&lt;br/&gt;+ getParentId(): Integer&lt;br/&gt;# canEqual(Object): boolean&lt;br/&gt;+ equals(Object): boolean&lt;/p&gt;" style="verticalAlign=top;align=left;overflow=fill;fontSize=14;fontFamily=Helvetica;html=1;rounded=0;shadow=0;comic=0;labelBackgroundColor=none;strokeWidth=1;" parent="1" vertex="1">
          <mxGeometry x="1191" y="1904" width="335" height="83" as="geometry" />
        </mxCell>
        <mxCell id="node24" value="&lt;p style=&quot;margin:0px;margin-top:4px;text-align:center;&quot;&gt;&lt;b&gt;ApplicationConfig&lt;/b&gt;&lt;/p&gt;&lt;hr size=&quot;1&quot;/&gt;&lt;p style=&quot;margin:0 0 0 4px;line-height:1.6;&quot;&gt;- filePath: String&lt;br/&gt;- dictionaryPath: String&lt;br/&gt;- DEFAULT_SIZE: Integer&lt;/p&gt;&lt;hr size=&quot;1&quot;/&gt;&lt;p style=&quot;margin:0 0 0 4px;line-height:1.6;&quot;&gt;+ getStandardAnalyzer(): StandardAnalyzer&lt;br/&gt;+ getDirectory(): Directory&lt;/p&gt;" style="verticalAlign=top;align=left;overflow=fill;fontSize=14;fontFamily=Helvetica;html=1;rounded=0;shadow=0;comic=0;labelBackgroundColor=none;strokeWidth=1;" parent="1" vertex="1">
          <mxGeometry x="149" y="1565" width="305" height="120" as="geometry" />
        </mxCell>
        <mxCell id="node17" value="&lt;p style=&quot;margin:0px;margin-top:4px;text-align:center;&quot;&gt;&lt;b&gt;CategoryTreeValueDTO&lt;/b&gt;&lt;/p&gt;&lt;hr size=&quot;1&quot;/&gt;&lt;p style=&quot;margin:0 0 0 4px;line-height:1.6;&quot;&gt;- categoryId: Integer&lt;br/&gt;- value: String&lt;/p&gt;&lt;hr size=&quot;1&quot;/&gt;&lt;p style=&quot;margin:0 0 0 4px;line-height:1.6;&quot;&gt;+ builder(): CategoryTreeValueDTOBuilder&lt;br/&gt;+ getValue(): String&lt;br/&gt;+ hashCode(): int&lt;br/&gt;+ getCategoryId(): Integer&lt;br/&gt;+ toString(): String&lt;br/&gt;+ equals(Object): boolean&lt;br/&gt;+ setCategoryId(Integer): void&lt;br/&gt;+ setValue(String): void&lt;br/&gt;# canEqual(Object): boolean&lt;/p&gt;" style="verticalAlign=top;align=left;overflow=fill;fontSize=14;fontFamily=Helvetica;html=1;rounded=0;shadow=0;comic=0;labelBackgroundColor=none;strokeWidth=1;" parent="1" vertex="1">
          <mxGeometry x="-260" y="1628" width="295" height="94" as="geometry" />
        </mxCell>
        <mxCell id="node5" value="&lt;p style=&quot;margin:0px;margin-top:4px;text-align:center;&quot;&gt;&lt;i&gt;&amp;lt;&amp;lt;interface&amp;gt;&amp;gt;&lt;/i&gt;&lt;br/&gt;&lt;b&gt;ExternalOperationsService&lt;/b&gt;&lt;/p&gt;&lt;hr size=&quot;1&quot;/&gt;&lt;p style=&quot;margin:0 0 0 4px;line-height:1.6;&quot;&gt;+ getProductsByIds(GetProductsByIdsRequest): GetProductsByIdsResponse&lt;br/&gt;+ getProductsByCategory(Integer, Integer, String, GetProductsByCategoryRequest): GetProductsByCategoryResponse&lt;br/&gt;+ getProductById(Integer): ProductDTO&lt;/p&gt;" style="verticalAlign=top;align=left;overflow=fill;fontSize=14;fontFamily=Helvetica;html=1;rounded=0;shadow=0;comic=0;labelBackgroundColor=none;strokeWidth=1;" parent="1" vertex="1">
          <mxGeometry x="1162" y="2751" width="601" height="139" as="geometry" />
        </mxCell>
        <mxCell id="node13" value="&lt;p style=&quot;margin:0px;margin-top:4px;text-align:center;&quot;&gt;&lt;b&gt;ExternalOperationsServiceImpl&lt;/b&gt;&lt;/p&gt;&lt;hr size=&quot;1&quot;/&gt;&lt;p style=&quot;margin:0 0 0 4px;line-height:1.6;&quot;&gt;- log: Logger&lt;br/&gt;- productPublicService: ProductPublicService&lt;/p&gt;&lt;hr size=&quot;1&quot;/&gt;&lt;p style=&quot;margin:0 0 0 4px;line-height:1.6;&quot;&gt;+ getProductsByCategory(Integer, Integer, String, GetProductsByCategoryRequest): GetProductsByCategoryResponse&lt;br/&gt;+ getProductsByIds(GetProductsByIdsRequest): GetProductsByIdsResponse&lt;br/&gt;+ getProductById(Integer): ProductDTO&lt;/p&gt;" style="verticalAlign=top;align=left;overflow=fill;fontSize=14;fontFamily=Helvetica;html=1;rounded=0;shadow=0;comic=0;labelBackgroundColor=none;strokeWidth=1;" parent="1" vertex="1">
          <mxGeometry x="1162" y="3323" width="601" height="161" as="geometry" />
        </mxCell>
        <mxCell id="node26" value="&lt;p style=&quot;margin:0px;margin-top:4px;text-align:center;&quot;&gt;&lt;b&gt;GetCategoryTreeResponse&lt;/b&gt;&lt;/p&gt;&lt;hr size=&quot;1&quot;/&gt;&lt;p style=&quot;margin:0 0 0 4px;line-height:1.6;&quot;&gt;~ parentCategories: List&amp;lt;CategoryTreeValueDTO&amp;gt;&lt;br/&gt;~ childCategories: List&amp;lt;CategoryTreeValueDTO&amp;gt;&lt;/p&gt;&lt;hr size=&quot;1&quot;/&gt;&lt;p style=&quot;margin:0 0 0 4px;line-height:1.6;&quot;&gt;+ builder(): GetCategoryTreeResponseBuilder&lt;br/&gt;+ getParentCategories(): List&amp;lt;CategoryTreeValueDTO&amp;gt;&lt;br/&gt;+ equals(Object): boolean&lt;br/&gt;+ hashCode(): int&lt;br/&gt;+ setParentCategories(List&amp;lt;CategoryTreeValueDTO&amp;gt;): void&lt;br/&gt;+ getChildCategories(): List&amp;lt;CategoryTreeValueDTO&amp;gt;&lt;br/&gt;+ toString(): String&lt;br/&gt;# canEqual(Object): boolean&lt;br/&gt;+ setChildCategories(List&amp;lt;CategoryTreeValueDTO&amp;gt;): void&lt;/p&gt;" style="verticalAlign=top;align=left;overflow=fill;fontSize=14;fontFamily=Helvetica;html=1;rounded=0;shadow=0;comic=0;labelBackgroundColor=none;strokeWidth=1;" parent="1" vertex="1">
          <mxGeometry x="517" y="2448" width="428" height="94" as="geometry" />
        </mxCell>
        <mxCell id="node10" value="&lt;p style=&quot;margin:0px;margin-top:4px;text-align:center;&quot;&gt;&lt;b&gt;GetProductCategoryIdRequest&lt;/b&gt;&lt;/p&gt;&lt;hr size=&quot;1&quot;/&gt;&lt;p style=&quot;margin:0 0 0 4px;line-height:1.6;&quot;&gt;- categoryName: String&lt;/p&gt;&lt;hr size=&quot;1&quot;/&gt;&lt;p style=&quot;margin:0 0 0 4px;line-height:1.6;&quot;&gt;+ builder(): GetProductCategoryIdRequestBuilder&lt;br/&gt;# canEqual(Object): boolean&lt;br/&gt;+ hashCode(): int&lt;br/&gt;+ getCategoryName(): String&lt;br/&gt;+ setCategoryName(String): void&lt;br/&gt;+ toString(): String&lt;br/&gt;+ equals(Object): boolean&lt;/p&gt;" style="verticalAlign=top;align=left;overflow=fill;fontSize=14;fontFamily=Helvetica;html=1;rounded=0;shadow=0;comic=0;labelBackgroundColor=none;strokeWidth=1;" parent="1" vertex="1">
          <mxGeometry x="-260" y="2088" width="335" height="68" as="geometry" />
        </mxCell>
        <mxCell id="node12" value="&lt;p style=&quot;margin:0px;margin-top:4px;text-align:center;&quot;&gt;&lt;i&gt;&amp;lt;&amp;lt;interface&amp;gt;&amp;gt;&lt;/i&gt;&lt;br/&gt;&lt;b&gt;ProductCategorizeService&lt;/b&gt;&lt;/p&gt;&lt;hr size=&quot;1&quot;/&gt;&lt;p style=&quot;margin:0 0 0 4px;line-height:1.6;&quot;&gt;+ addNewProductCategory(AddNewProductCategoryRequest): void&lt;br/&gt;+ getCategoryTree(Integer): GetCategoryTreeResponse&lt;br/&gt;+ getProductCategoryId(GetProductCategoryIdRequest): Integer&lt;/p&gt;" style="verticalAlign=top;align=left;overflow=fill;fontSize=14;fontFamily=Helvetica;html=1;rounded=0;shadow=0;comic=0;labelBackgroundColor=none;strokeWidth=1;" parent="1" vertex="1">
          <mxGeometry x="1191" y="2109" width="452" height="139" as="geometry" />
        </mxCell>
        <mxCell id="node3" value="&lt;p style=&quot;margin:0px;margin-top:4px;text-align:center;&quot;&gt;&lt;b&gt;ProductCategorizeServiceImpl&lt;/b&gt;&lt;/p&gt;&lt;hr size=&quot;1&quot;/&gt;&lt;p style=&quot;margin:0 0 0 4px;line-height:1.6;&quot;&gt;- exceptionFactory: ExceptionFactory&lt;br/&gt;- cacheInvalidateService: CacheInvalidateService&lt;br/&gt;- log: Logger&lt;br/&gt;- productCategoryRepository: ProductCategoryRepository&lt;/p&gt;&lt;hr size=&quot;1&quot;/&gt;&lt;p style=&quot;margin:0 0 0 4px;line-height:1.6;&quot;&gt;- findParentCategories(ProductCategory): List&amp;lt;CategoryTreeValueDTO&amp;gt;&lt;br/&gt;- findChildCategories(ProductCategory): List&amp;lt;CategoryTreeValueDTO&amp;gt;&lt;br/&gt;- processCategories(List&amp;lt;ProductCategory&amp;gt;): List&amp;lt;ProductCategoryDTO&amp;gt;&lt;br/&gt;+ addNewProductCategory(AddNewProductCategoryRequest): void&lt;br/&gt;+ getProductCategoryId(GetProductCategoryIdRequest): Integer&lt;br/&gt;+ getCategoryTree(Integer): GetCategoryTreeResponse&lt;/p&gt;" style="verticalAlign=top;align=left;overflow=fill;fontSize=14;fontFamily=Helvetica;html=1;rounded=0;shadow=0;comic=0;labelBackgroundColor=none;strokeWidth=1;" parent="1" vertex="1">
          <mxGeometry x="1162" y="3551" width="501" height="281" as="geometry" />
        </mxCell>
        <mxCell id="node21" value="&lt;p style=&quot;margin:0px;margin-top:4px;text-align:center;&quot;&gt;&lt;b&gt;ProductCategory&lt;/b&gt;&lt;/p&gt;&lt;hr size=&quot;1&quot;/&gt;&lt;p style=&quot;margin:0 0 0 4px;line-height:1.6;&quot;&gt;- productCategoryId: Integer&lt;br/&gt;- parent: ProductCategory&lt;br/&gt;- subcategories: List&amp;lt;ProductCategory&amp;gt;&lt;br/&gt;- value: String&lt;/p&gt;&lt;hr size=&quot;1&quot;/&gt;&lt;p style=&quot;margin:0 0 0 4px;line-height:1.6;&quot;&gt;+ hashCode(): int&lt;br/&gt;+ setSubcategories(List&amp;lt;ProductCategory&amp;gt;): void&lt;br/&gt;+ getSubcategories(): List&amp;lt;ProductCategory&amp;gt;&lt;br/&gt;+ setProductCategoryId(Integer): void&lt;br/&gt;+ setParent(ProductCategory): void&lt;br/&gt;+ setValue(String): void&lt;br/&gt;+ getParent(): ProductCategory&lt;br/&gt;+ builder(): ProductCategoryBuilder&lt;br/&gt;+ getProductCategoryId(): Integer&lt;br/&gt;+ getValue(): String&lt;br/&gt;+ equals(Object): boolean&lt;br/&gt;# canEqual(Object): boolean&lt;br/&gt;+ toString(): String&lt;/p&gt;" style="verticalAlign=top;align=left;overflow=fill;fontSize=14;fontFamily=Helvetica;html=1;rounded=0;shadow=0;comic=0;labelBackgroundColor=none;strokeWidth=1;" parent="1" vertex="1">
          <mxGeometry x="-260" y="2288" width="354" height="146" as="geometry" />
        </mxCell>
        <mxCell id="node1" value="&lt;p style=&quot;margin:0px;margin-top:4px;text-align:center;&quot;&gt;&lt;b&gt;ProductCategoryDTO&lt;/b&gt;&lt;/p&gt;&lt;hr size=&quot;1&quot;/&gt;&lt;p style=&quot;margin:0 0 0 4px;line-height:1.6;&quot;&gt;- categoryId: Integer&lt;br/&gt;- value: String&lt;br/&gt;~ subcategories: List&amp;lt;ProductCategoryDTO&amp;gt;&lt;/p&gt;&lt;hr size=&quot;1&quot;/&gt;&lt;p style=&quot;margin:0 0 0 4px;line-height:1.6;&quot;&gt;+ hashCode(): int&lt;br/&gt;+ setCategoryId(Integer): void&lt;br/&gt;+ setValue(String): void&lt;br/&gt;+ toString(): String&lt;br/&gt;+ getValue(): String&lt;br/&gt;# canEqual(Object): boolean&lt;br/&gt;+ getCategoryId(): Integer&lt;br/&gt;+ getSubcategories(): List&amp;lt;ProductCategoryDTO&amp;gt;&lt;br/&gt;+ equals(Object): boolean&lt;br/&gt;+ builder(): ProductCategoryDTOBuilder&lt;br/&gt;+ setSubcategories(List&amp;lt;ProductCategoryDTO&amp;gt;): void&lt;/p&gt;" style="verticalAlign=top;align=left;overflow=fill;fontSize=14;fontFamily=Helvetica;html=1;rounded=0;shadow=0;comic=0;labelBackgroundColor=none;strokeWidth=1;" parent="1" vertex="1">
          <mxGeometry x="1159" y="1565" width="367" height="122" as="geometry" />
        </mxCell>
        <mxCell id="node25" value="&lt;p style=&quot;margin:0px;margin-top:4px;text-align:center;&quot;&gt;&lt;i&gt;&amp;lt;&amp;lt;interface&amp;gt;&amp;gt;&lt;/i&gt;&lt;br/&gt;&lt;b&gt;ProductCategoryRepository&lt;/b&gt;&lt;/p&gt;&lt;hr size=&quot;1&quot;/&gt;&lt;p style=&quot;margin:0 0 0 4px;line-height:1.6;&quot;&gt;+ findFirstByValue(String): Optional&amp;lt;ProductCategory&amp;gt;&lt;br/&gt;+ findProductCategoryByValue(String): Optional&amp;lt;ProductCategory&amp;gt;&lt;/p&gt;" style="verticalAlign=top;align=left;overflow=fill;fontSize=14;fontFamily=Helvetica;html=1;rounded=0;shadow=0;comic=0;labelBackgroundColor=none;strokeWidth=1;" parent="1" vertex="1">
          <mxGeometry x="1189" y="2426" width="455" height="109" as="geometry" />
        </mxCell>
        <mxCell id="node6" value="&lt;p style=&quot;margin:0px;margin-top:4px;text-align:center;&quot;&gt;&lt;i&gt;&amp;lt;&amp;lt;interface&amp;gt;&amp;gt;&lt;/i&gt;&lt;br/&gt;&lt;b&gt;SearchDictionaryService&lt;/b&gt;&lt;/p&gt;&lt;hr size=&quot;1&quot;/&gt;&lt;p style=&quot;margin:0 0 0 4px;line-height:1.6;&quot;&gt;+ deleteProductFromSearchDictionary(Integer): void&lt;br/&gt;+ searchMatchingProducts(String, Integer, Integer, String): SearchPagination&lt;br/&gt;+ addProductInSearchDictionary(Integer): void&lt;br/&gt;+ updateProductInSearchDictionary(Integer): void&lt;/p&gt;" style="verticalAlign=top;align=left;overflow=fill;fontSize=14;fontFamily=Helvetica;html=1;rounded=0;shadow=0;comic=0;labelBackgroundColor=none;strokeWidth=1;" parent="1" vertex="1">
          <mxGeometry x="508" y="2651" width="513" height="169" as="geometry" />
        </mxCell>
        <mxCell id="node16" value="&lt;p style=&quot;margin:0px;margin-top:4px;text-align:center;&quot;&gt;&lt;b&gt;SearchDictionaryServiceImpl&lt;/b&gt;&lt;/p&gt;&lt;hr size=&quot;1&quot;/&gt;&lt;p style=&quot;margin:0 0 0 4px;line-height:1.6;&quot;&gt;- standardAnalyzer: Analyzer&lt;br/&gt;- directory: Directory&lt;br/&gt;- CREATION_DATE_KEY: String&lt;br/&gt;- log: Logger&lt;br/&gt;- METADATA_KEY: String&lt;br/&gt;- POPULARITY_KEY: String&lt;br/&gt;- PRODUCT_ID_KEY: String&lt;br/&gt;- productCategorizeService: ProductCategorizeService&lt;br/&gt;- externalOperationsService: ExternalOperationsService&lt;/p&gt;&lt;hr size=&quot;1&quot;/&gt;&lt;p style=&quot;margin:0 0 0 4px;line-height:1.6;&quot;&gt;+ updateProductInSearchDictionary(Integer): void&lt;br/&gt;+ deleteProductFromSearchDictionary(Integer): void&lt;br/&gt;- getCategoryChain(List&amp;lt;String&amp;gt;): String&lt;br/&gt;- processQuery(String): List&amp;lt;String&amp;gt;&lt;br/&gt;- joinValues(String, String, String): String&lt;br/&gt;+ addProductInSearchDictionary(Integer): void&lt;br/&gt;+ searchMatchingProducts(String, Integer, Integer, String): SearchPagination&lt;br/&gt;- determineSortCriteria(String): Sort&lt;br/&gt;- getLastScoreDoc(IndexSearcher, Query, Sort, int): ScoreDoc&lt;/p&gt;" style="verticalAlign=top;align=left;overflow=fill;fontSize=14;fontFamily=Helvetica;html=1;rounded=0;shadow=0;comic=0;labelBackgroundColor=none;strokeWidth=1;" parent="1" vertex="1">
          <mxGeometry x="582" y="2901" width="513" height="473" as="geometry" />
        </mxCell>
        <mxCell id="node14" value="&lt;p style=&quot;margin:0px;margin-top:4px;text-align:center;&quot;&gt;&lt;b&gt;SearchEngineApplication&lt;/b&gt;&lt;/p&gt;&lt;hr size=&quot;1&quot;/&gt;&lt;p style=&quot;margin:0 0 0 4px;line-height:1.6;&quot;&gt;+ main(String[]): void&lt;/p&gt;" style="verticalAlign=top;align=left;overflow=fill;fontSize=14;fontFamily=Helvetica;html=1;rounded=0;shadow=0;comic=0;labelBackgroundColor=none;strokeWidth=1;" parent="1" vertex="1">
          <mxGeometry x="1136" y="3101" width="243" height="68" as="geometry" />
        </mxCell>
        <mxCell id="node22" value="&lt;p style=&quot;margin:0px;margin-top:4px;text-align:center;&quot;&gt;&lt;b&gt;SearchEngineController&lt;/b&gt;&lt;/p&gt;&lt;hr size=&quot;1&quot;/&gt;&lt;p style=&quot;margin:0 0 0 4px;line-height:1.6;&quot;&gt;- productCategorizeService: ProductCategorizeService&lt;br/&gt;- log: Logger&lt;br/&gt;- searchProductsService: SearchProductsService&lt;br/&gt;- searchDictionaryService: SearchDictionaryService&lt;/p&gt;&lt;hr size=&quot;1&quot;/&gt;&lt;p style=&quot;margin:0 0 0 4px;line-height:1.6;&quot;&gt;+ getCategoryTree(Integer): ResponseEntity&amp;lt;GetCategoryTreeResponse&amp;gt;&lt;br/&gt;+ addNewProductCategory(AddNewProductCategoryRequest): void&lt;br/&gt;+ searchProducts(Integer, Integer, String, SearchProductsRequest): ResponseEntity&amp;lt;SearchProductsResponse&amp;gt;&lt;br/&gt;+ addProductInSearchDictionary(Integer): void&lt;br/&gt;+ updateProductInSearchDictionary(Integer): void&lt;br/&gt;+ deleteProductFromSearchDictionary(Integer): void&lt;br/&gt;+ searchProductsByCategory(Integer, Integer, Integer, String): ResponseEntity&amp;lt;SearchProductsResponse&amp;gt;&lt;br/&gt;+ getProductCategoryId(GetProductCategoryIdRequest): ResponseEntity&amp;lt;Integer&amp;gt;&lt;/p&gt;" style="verticalAlign=top;align=left;overflow=fill;fontSize=14;fontFamily=Helvetica;html=1;rounded=0;shadow=0;comic=0;labelBackgroundColor=none;strokeWidth=1;" parent="1" vertex="1">
          <mxGeometry x="-260" y="3440" width="701" height="329" as="geometry" />
        </mxCell>
        <mxCell id="node2" value="&lt;p style=&quot;margin:0px;margin-top:4px;text-align:center;&quot;&gt;&lt;i&gt;&amp;lt;&amp;lt;interface&amp;gt;&amp;gt;&lt;/i&gt;&lt;br/&gt;&lt;b&gt;SearchEnginePublicService&lt;/b&gt;&lt;/p&gt;&lt;hr size=&quot;1&quot;/&gt;" style="verticalAlign=top;align=left;overflow=fill;fontSize=14;fontFamily=Helvetica;html=1;rounded=0;shadow=0;comic=0;labelBackgroundColor=none;strokeWidth=1;" parent="1" vertex="1">
          <mxGeometry x="158" y="3323" width="261" height="35" as="geometry" />
        </mxCell>
        <mxCell id="node7" value="&lt;p style=&quot;margin:0px;margin-top:4px;text-align:center;&quot;&gt;&lt;i&gt;&amp;lt;&amp;lt;interface&amp;gt;&amp;gt;&lt;/i&gt;&lt;br&gt;&lt;b&gt;SearchEngineService&lt;/b&gt;&lt;/p&gt;&lt;hr size=&quot;1&quot;&gt;&lt;p style=&quot;margin:0 0 0 4px;line-height:1.6;&quot;&gt;+ getCategoryTree(Integer): ResponseEntity&amp;lt;GetCategoryTreeResponse&amp;gt;&lt;br&gt;+ deleteProductFromSearchDictionary(Integer): void&lt;br&gt;+ searchProducts(Integer, Integer, String, SearchProductsRequest): ResponseEntity&amp;lt;SearchProductsResponse&amp;gt;&lt;br&gt;+ addProductInSearchDictionary(Integer): void&lt;br&gt;+ searchProductsByCategory(Integer, Integer, Integer, String): ResponseEntity&amp;lt;SearchProductsResponse&amp;gt;&lt;br&gt;+ getProductCategoryId(GetProductCategoryIdRequest): ResponseEntity&amp;lt;Integer&amp;gt;&lt;br&gt;+ updateProductInSearchDictionary(Integer): void&lt;br&gt;+ addNewProductCategory(AddNewProductCategoryRequest): void&lt;/p&gt;" style="verticalAlign=top;align=left;overflow=fill;fontSize=14;fontFamily=Helvetica;html=1;rounded=0;shadow=0;comic=0;labelBackgroundColor=none;strokeWidth=1;" parent="1" vertex="1">
          <mxGeometry x="-260" y="2901" width="720" height="239" as="geometry" />
        </mxCell>
        <mxCell id="node15" value="&lt;p style=&quot;margin:0px;margin-top:4px;text-align:center;&quot;&gt;&lt;b&gt;SearchPagination&lt;/b&gt;&lt;/p&gt;&lt;hr size=&quot;1&quot;/&gt;&lt;p style=&quot;margin:0 0 0 4px;line-height:1.6;&quot;&gt;- totalNumberOfPages: int&lt;br/&gt;- productIds: List&amp;lt;Integer&amp;gt;&lt;br/&gt;- pageNumber: int&lt;/p&gt;&lt;hr size=&quot;1&quot;/&gt;&lt;p style=&quot;margin:0 0 0 4px;line-height:1.6;&quot;&gt;+ getPageNumber(): int&lt;br/&gt;+ setTotalNumberOfPages(int): void&lt;br/&gt;# canEqual(Object): boolean&lt;br/&gt;+ getTotalNumberOfPages(): int&lt;br/&gt;+ builder(): SearchPaginationBuilder&lt;br/&gt;+ equals(Object): boolean&lt;br/&gt;+ setProductIds(List&amp;lt;Integer&amp;gt;): void&lt;br/&gt;+ hashCode(): int&lt;br/&gt;+ getProductIds(): List&amp;lt;Integer&amp;gt;&lt;br/&gt;+ setPageNumber(int): void&lt;br/&gt;+ toString(): String&lt;/p&gt;" style="verticalAlign=top;align=left;overflow=fill;fontSize=14;fontFamily=Helvetica;html=1;rounded=0;shadow=0;comic=0;labelBackgroundColor=none;strokeWidth=1;" parent="1" vertex="1">
          <mxGeometry x="224" y="1839" width="273" height="120" as="geometry" />
        </mxCell>
        <mxCell id="node20" value="&lt;p style=&quot;margin:0px;margin-top:4px;text-align:center;&quot;&gt;&lt;b&gt;SearchProductDTO&lt;/b&gt;&lt;/p&gt;&lt;hr size=&quot;1&quot;/&gt;&lt;p style=&quot;margin:0 0 0 4px;line-height:1.6;&quot;&gt;- creationDate: ZonedDateTime&lt;br/&gt;- categoryId: Integer&lt;br/&gt;- productImages: List&amp;lt;String&amp;gt;&lt;br/&gt;- productId: Integer&lt;br/&gt;- popularity: Integer&lt;br/&gt;- title: String&lt;br/&gt;- description: String&lt;br/&gt;- userId: Integer&lt;br/&gt;- price: Double&lt;/p&gt;&lt;hr size=&quot;1&quot;/&gt;&lt;p style=&quot;margin:0 0 0 4px;line-height:1.6;&quot;&gt;+ getDescription(): String&lt;br/&gt;+ getProductImages(): List&amp;lt;String&amp;gt;&lt;br/&gt;+ getUserId(): Integer&lt;br/&gt;+ getTitle(): String&lt;br/&gt;+ setCreationDate(ZonedDateTime): void&lt;br/&gt;+ getPopularity(): Integer&lt;br/&gt;+ getCreationDate(): ZonedDateTime&lt;br/&gt;+ getCategoryId(): Integer&lt;br/&gt;+ getPrice(): Double&lt;br/&gt;# canEqual(Object): boolean&lt;br/&gt;+ toString(): String&lt;br/&gt;+ setProductId(Integer): void&lt;br/&gt;+ hashCode(): int&lt;br/&gt;+ setCategoryId(Integer): void&lt;br/&gt;+ setUserId(Integer): void&lt;br/&gt;+ builder(): SearchProductDTOBuilder&lt;br/&gt;+ setTitle(String): void&lt;br/&gt;+ getProductId(): Integer&lt;br/&gt;+ setDescription(String): void&lt;br/&gt;+ equals(Object): boolean&lt;br/&gt;+ setProductImages(List&amp;lt;String&amp;gt;): void&lt;br/&gt;+ setPrice(Double): void&lt;br/&gt;+ setPopularity(Integer): void&lt;/p&gt;" style="verticalAlign=top;align=left;overflow=fill;fontSize=14;fontFamily=Helvetica;html=1;rounded=0;shadow=0;comic=0;labelBackgroundColor=none;strokeWidth=1;" parent="1" vertex="1">
          <mxGeometry x="231" y="2108" width="260" height="250" as="geometry" />
        </mxCell>
        <mxCell id="node23" value="&lt;p style=&quot;margin:0px;margin-top:4px;text-align:center;&quot;&gt;&lt;b&gt;SearchProductMapper&lt;/b&gt;&lt;/p&gt;&lt;hr size=&quot;1&quot;/&gt;&lt;p style=&quot;margin:0 0 0 4px;line-height:1.6;&quot;&gt;+ prodDtoToSearchProdDto(ProductDTO): SearchProductDTO&lt;/p&gt;" style="verticalAlign=top;align=left;overflow=fill;fontSize=14;fontFamily=Helvetica;html=1;rounded=0;shadow=0;comic=0;labelBackgroundColor=none;strokeWidth=1;" parent="1" vertex="1">
          <mxGeometry x="-260" y="2748" width="418" height="68" as="geometry" />
        </mxCell>
        <mxCell id="node8" value="&lt;p style=&quot;margin:0px;margin-top:4px;text-align:center;&quot;&gt;&lt;b&gt;SearchProductsRequest&lt;/b&gt;&lt;/p&gt;&lt;hr size=&quot;1&quot;/&gt;&lt;p style=&quot;margin:0 0 0 4px;line-height:1.6;&quot;&gt;- query: String&lt;/p&gt;&lt;hr size=&quot;1&quot;/&gt;&lt;p style=&quot;margin:0 0 0 4px;line-height:1.6;&quot;&gt;+ setQuery(String): void&lt;br/&gt;+ hashCode(): int&lt;br/&gt;# canEqual(Object): boolean&lt;br/&gt;+ equals(Object): boolean&lt;br/&gt;+ toString(): String&lt;br/&gt;+ getQuery(): String&lt;br/&gt;+ builder(): SearchProductsRequestBuilder&lt;/p&gt;" style="verticalAlign=top;align=left;overflow=fill;fontSize=14;fontFamily=Helvetica;html=1;rounded=0;shadow=0;comic=0;labelBackgroundColor=none;strokeWidth=1;" parent="1" vertex="1">
          <mxGeometry x="584" y="1565" width="288" height="68" as="geometry" />
        </mxCell>
        <mxCell id="node11" value="&lt;p style=&quot;margin:0px;margin-top:4px;text-align:center;&quot;&gt;&lt;b&gt;SearchProductsResponse&lt;/b&gt;&lt;/p&gt;&lt;hr size=&quot;1&quot;/&gt;&lt;p style=&quot;margin:0 0 0 4px;line-height:1.6;&quot;&gt;- totalPages: Integer&lt;br/&gt;- totalItems: Integer&lt;br/&gt;- currentPage: Integer&lt;br/&gt;- hasPreviousPage: Boolean&lt;br/&gt;- itemsPerPage: Integer&lt;br/&gt;~ searchProducts: List&amp;lt;SearchProductDTO&amp;gt;&lt;br/&gt;- hasNextPage: Boolean&lt;/p&gt;&lt;hr size=&quot;1&quot;/&gt;&lt;p style=&quot;margin:0 0 0 4px;line-height:1.6;&quot;&gt;+ hashCode(): int&lt;br/&gt;+ getCurrentPage(): Integer&lt;br/&gt;+ toString(): String&lt;br/&gt;+ setTotalItems(Integer): void&lt;br/&gt;+ setHasNextPage(Boolean): void&lt;br/&gt;# canEqual(Object): boolean&lt;br/&gt;+ getHasPreviousPage(): Boolean&lt;br/&gt;+ getTotalPages(): Integer&lt;br/&gt;+ setItemsPerPage(Integer): void&lt;br/&gt;+ getTotalItems(): Integer&lt;br/&gt;+ getHasNextPage(): Boolean&lt;br/&gt;+ equals(Object): boolean&lt;br/&gt;+ setHasPreviousPage(Boolean): void&lt;br/&gt;+ getSearchProducts(): List&amp;lt;SearchProductDTO&amp;gt;&lt;br/&gt;+ builder(): SearchProductsResponseBuilder&lt;br/&gt;+ getItemsPerPage(): Integer&lt;br/&gt;+ setSearchProducts(List&amp;lt;SearchProductDTO&amp;gt;): void&lt;br/&gt;+ setCurrentPage(Integer): void&lt;br/&gt;+ setTotalPages(Integer): void&lt;/p&gt;" style="verticalAlign=top;align=left;overflow=fill;fontSize=14;fontFamily=Helvetica;html=1;rounded=0;shadow=0;comic=0;labelBackgroundColor=none;strokeWidth=1;" parent="1" vertex="1">
          <mxGeometry x="584" y="1904" width="367" height="206" as="geometry" />
        </mxCell>
        <mxCell id="node18" value="&lt;p style=&quot;margin:0px;margin-top:4px;text-align:center;&quot;&gt;&lt;i&gt;&amp;lt;&amp;lt;interface&amp;gt;&amp;gt;&lt;/i&gt;&lt;br/&gt;&lt;b&gt;SearchProductsService&lt;/b&gt;&lt;/p&gt;&lt;hr size=&quot;1&quot;/&gt;&lt;p style=&quot;margin:0 0 0 4px;line-height:1.6;&quot;&gt;+ searchProducts(Integer, Integer, String, SearchProductsRequest): SearchProductsResponse&lt;br/&gt;+ searchProductsByCategory(Integer, Integer, Integer, String): SearchProductsResponse&lt;/p&gt;" style="verticalAlign=top;align=left;overflow=fill;fontSize=14;fontFamily=Helvetica;html=1;rounded=0;shadow=0;comic=0;labelBackgroundColor=none;strokeWidth=1;" parent="1" vertex="1">
          <mxGeometry x="-260" y="2515" width="587" height="109" as="geometry" />
        </mxCell>
        <mxCell id="node19" value="&lt;p style=&quot;margin:0px;margin-top:4px;text-align:center;&quot;&gt;&lt;b&gt;SearchProductsServiceImpl&lt;/b&gt;&lt;/p&gt;&lt;hr size=&quot;1&quot;/&gt;&lt;p style=&quot;margin:0 0 0 4px;line-height:1.6;&quot;&gt;- log: Logger&lt;br/&gt;- productCategorizeService: ProductCategorizeService&lt;br/&gt;- searchDictionaryService: SearchDictionaryService&lt;br/&gt;- externalOperationsService: ExternalOperationsService&lt;/p&gt;&lt;hr size=&quot;1&quot;/&gt;&lt;p style=&quot;margin:0 0 0 4px;line-height:1.6;&quot;&gt;+ searchProducts(Integer, Integer, String, SearchProductsRequest): SearchProductsResponse&lt;br/&gt;+ searchProductsByCategory(Integer, Integer, Integer, String): SearchProductsResponse&lt;/p&gt;" style="verticalAlign=top;align=left;overflow=fill;fontSize=14;fontFamily=Helvetica;html=1;rounded=0;shadow=0;comic=0;labelBackgroundColor=none;strokeWidth=1;" parent="1" vertex="1">
          <mxGeometry x="508" y="3647" width="587" height="185" as="geometry" />
        </mxCell>
        <mxCell id="node4" value="&lt;p style=&quot;margin:0px;margin-top:4px;text-align:center;&quot;&gt;&lt;i&gt;&amp;lt;&amp;lt;enumeration&amp;gt;&amp;gt;&lt;/i&gt;&lt;br/&gt;&lt;b&gt;SearchSortCriteria&lt;/b&gt;&lt;/p&gt;&lt;hr size=&quot;1&quot;/&gt;&lt;p style=&quot;margin:0 0 0 4px;line-height:1.6;&quot;&gt;+ POPULARITY: &lt;br/&gt;+ RANDOM: &lt;br/&gt;+ BEST_MATCH: &lt;br/&gt;+ NEWEST: &lt;/p&gt;&lt;hr size=&quot;1&quot;/&gt;&lt;p style=&quot;margin:0 0 0 4px;line-height:1.6;&quot;&gt;+ values(): SearchSortCriteria[]&lt;br/&gt;+ valueOf(String): SearchSortCriteria&lt;/p&gt;" style="verticalAlign=top;align=left;overflow=fill;fontSize=14;fontFamily=Helvetica;html=1;rounded=0;shadow=0;comic=0;labelBackgroundColor=none;strokeWidth=1;" parent="1" vertex="1">
          <mxGeometry x="-260" y="1817" width="260" height="167" as="geometry" />
        </mxCell>
        <mxCell id="node9" value="&lt;p style=&quot;margin:0px;margin-top:4px;text-align:center;&quot;&gt;&lt;b&gt;SecurityConfiguration&lt;/b&gt;&lt;/p&gt;&lt;hr size=&quot;1&quot;/&gt;&lt;p style=&quot;margin:0 0 0 4px;line-height:1.6;&quot;&gt;- WHITE_LIST_URL: String[]&lt;/p&gt;&lt;hr size=&quot;1&quot;/&gt;&lt;p style=&quot;margin:0 0 0 4px;line-height:1.6;&quot;&gt;+ securityFilterChain(HttpSecurity): SecurityFilterChain&lt;/p&gt;" style="verticalAlign=top;align=left;overflow=fill;fontSize=14;fontFamily=Helvetica;html=1;rounded=0;shadow=0;comic=0;labelBackgroundColor=none;strokeWidth=1;" parent="1" vertex="1">
          <mxGeometry x="1451" y="3088" width="373" height="96" as="geometry" />
        </mxCell>
        <mxCell id="edge5" value="" style="html=1;rounded=1;edgeStyle=orthogonalEdgeStyle;dashed=1;startArrow=none;endArrow=block;endSize=12;strokeColor=#008200;exitX=0.500;exitY=0.000;exitDx=0;exitDy=0;entryX=0.500;entryY=1.000;entryDx=0;entryDy=0;" parent="1" source="node13" target="node5" edge="1">
          <mxGeometry width="50" height="50" relative="1" as="geometry">
            <Array as="points" />
          </mxGeometry>
        </mxCell>
        <mxCell id="edge15" value="" style="html=1;rounded=1;edgeStyle=orthogonalEdgeStyle;dashed=0;startArrow=diamondThinstartSize=12;endArrow=openThin;endSize=12;strokeColor=#595959;exitX=0.000;exitY=0.500;exitDx=0;exitDy=0;entryX=1.000;entryY=0.464;entryDx=0;entryDy=0;" parent="1" source="node26" target="node17" edge="1">
          <mxGeometry width="50" height="50" relative="1" as="geometry">
            <Array as="points">
              <mxPoint x="126" y="2492" />
              <mxPoint x="126" y="1668" />
            </Array>
          </mxGeometry>
        </mxCell>
        <mxCell id="label90" value="" style="edgeLabel;resizable=0;html=1;align=left;verticalAlign=top;strokeColor=default;" parent="edge15" vertex="1" connectable="0">
          <mxGeometry x="121" y="1664" as="geometry" />
        </mxCell>
        <mxCell id="label94" value="*" style="edgeLabel;resizable=0;html=1;align=left;verticalAlign=top;strokeColor=default;" parent="edge15" vertex="1" connectable="0">
          <mxGeometry x="40" y="1663" as="geometry" />
        </mxCell>
        <mxCell id="label95" value="parentCategories" style="edgeLabel;resizable=0;html=1;align=left;verticalAlign=top;strokeColor=default;" parent="edge15" vertex="1" connectable="0">
          <mxGeometry x="30" y="1608" as="geometry" />
        </mxCell>
        <mxCell id="edge1" value="" style="html=1;rounded=1;edgeStyle=orthogonalEdgeStyle;dashed=1;startArrow=none;endArrow=block;endSize=12;strokeColor=#008200;exitX=1.000;exitY=0.607;exitDx=0;exitDy=0;entryX=1.000;entryY=0.500;entryDx=0;entryDy=0;" parent="1" source="node3" target="node12" edge="1">
          <mxGeometry width="50" height="50" relative="1" as="geometry">
            <Array as="points">
              <mxPoint x="1810" y="3721" />
              <mxPoint x="1810" y="2164" />
            </Array>
          </mxGeometry>
        </mxCell>
        <mxCell id="edge7" value="" style="html=1;rounded=1;edgeStyle=orthogonalEdgeStyle;dashed=0;startArrow=diamondThinstartSize=12;endArrow=openThin;endSize=12;strokeColor=#595959;exitX=1.000;exitY=0.553;exitDx=0;exitDy=0;entryX=1.000;entryY=0.500;entryDx=0;entryDy=0;" parent="1" source="node3" target="node25" edge="1">
          <mxGeometry width="50" height="50" relative="1" as="geometry">
            <Array as="points">
              <mxPoint x="1795" y="3706" />
              <mxPoint x="1795" y="2470" />
            </Array>
          </mxGeometry>
        </mxCell>
        <mxCell id="label42" value="" style="edgeLabel;resizable=0;html=1;align=left;verticalAlign=top;strokeColor=default;" parent="edge7" vertex="1" connectable="0">
          <mxGeometry x="1649" y="2465" as="geometry" />
        </mxCell>
        <mxCell id="label46" value="" style="edgeLabel;resizable=0;html=1;align=left;verticalAlign=top;strokeColor=default;" parent="edge7" vertex="1" connectable="0">
          <mxGeometry x="1668" y="3691" as="geometry" />
        </mxCell>
        <mxCell id="label47" value="productCategoryRepository" style="edgeLabel;resizable=0;html=1;align=left;verticalAlign=top;strokeColor=default;" parent="edge7" vertex="1" connectable="0">
          <mxGeometry x="1568" y="2383" as="geometry" />
        </mxCell>
        <mxCell id="edge10" value="" style="html=1;rounded=1;edgeStyle=orthogonalEdgeStyle;dashed=0;startArrow=diamondThinstartSize=12;endArrow=openThin;endSize=12;strokeColor=#595959;exitX=1.000;exitY=0.468;exitDx=0;exitDy=0;entryX=0.000;entryY=0.500;entryDx=0;entryDy=0;" parent="1" source="node16" target="node5" edge="1">
          <mxGeometry width="50" height="50" relative="1" as="geometry">
            <Array as="points">
              <mxPoint x="1112" y="3123" />
              <mxPoint x="1112" y="2807" />
            </Array>
          </mxGeometry>
        </mxCell>
        <mxCell id="label60" value="" style="edgeLabel;resizable=0;html=1;align=left;verticalAlign=top;strokeColor=default;" parent="edge10" vertex="1" connectable="0">
          <mxGeometry x="1133" y="2787" as="geometry" />
        </mxCell>
        <mxCell id="label64" value="" style="edgeLabel;resizable=0;html=1;align=left;verticalAlign=top;strokeColor=default;" parent="edge10" vertex="1" connectable="0">
          <mxGeometry x="1113" y="2791" as="geometry" />
        </mxCell>
        <mxCell id="label65" value="externalOperationsService" style="edgeLabel;resizable=0;html=1;align=left;verticalAlign=top;strokeColor=default;" parent="edge10" vertex="1" connectable="0">
          <mxGeometry x="1038" y="2723" as="geometry" />
        </mxCell>
        <mxCell id="edge13" value="" style="html=1;rounded=1;edgeStyle=orthogonalEdgeStyle;dashed=0;startArrow=diamondThinstartSize=12;endArrow=openThin;endSize=12;strokeColor=#595959;exitX=1.000;exitY=0.500;exitDx=0;exitDy=0;entryX=0.000;entryY=0.500;entryDx=0;entryDy=0;" parent="1" source="node16" target="node12" edge="1">
          <mxGeometry width="50" height="50" relative="1" as="geometry">
            <Array as="points">
              <mxPoint x="1129" y="3138" />
              <mxPoint x="1129" y="2164" />
            </Array>
          </mxGeometry>
        </mxCell>
        <mxCell id="label78" value="" style="edgeLabel;resizable=0;html=1;align=left;verticalAlign=top;strokeColor=default;" parent="edge13" vertex="1" connectable="0">
          <mxGeometry x="1175" y="2149" as="geometry" />
        </mxCell>
        <mxCell id="label82" value="" style="edgeLabel;resizable=0;html=1;align=left;verticalAlign=top;strokeColor=default;" parent="edge13" vertex="1" connectable="0">
          <mxGeometry x="1124" y="2479" as="geometry" />
        </mxCell>
        <mxCell id="label83" value="productCategorizeService" style="edgeLabel;resizable=0;html=1;align=left;verticalAlign=top;strokeColor=default;" parent="edge13" vertex="1" connectable="0">
          <mxGeometry x="1105" y="2226" as="geometry" />
        </mxCell>
        <mxCell id="edge3" value="" style="html=1;rounded=1;edgeStyle=orthogonalEdgeStyle;dashed=1;startArrow=none;endArrow=block;endSize=12;strokeColor=#008200;exitX=0.356;exitY=0.000;exitDx=0;exitDy=0;entryX=0.500;entryY=1.000;entryDx=0;entryDy=0;" parent="1" source="node16" target="node6" edge="1">
          <mxGeometry width="50" height="50" relative="1" as="geometry">
            <Array as="points" />
          </mxGeometry>
        </mxCell>
        <mxCell id="edge8" value="" style="html=1;rounded=1;edgeStyle=orthogonalEdgeStyle;dashed=0;startArrow=diamondThinstartSize=12;endArrow=openThin;endSize=12;strokeColor=#595959;exitX=1.000;exitY=0.500;exitDx=0;exitDy=0;entryX=0.000;entryY=0.500;entryDx=0;entryDy=0;" parent="1" source="node22" target="node12" edge="1">
          <mxGeometry width="50" height="50" relative="1" as="geometry">
            <Array as="points">
              <mxPoint x="475" y="3667" />
              <mxPoint x="475" y="2431" />
              <mxPoint x="1129" y="2431" />
              <mxPoint x="1129" y="2164" />
            </Array>
          </mxGeometry>
        </mxCell>
        <mxCell id="label48" value="" style="edgeLabel;resizable=0;html=1;align=left;verticalAlign=top;strokeColor=default;" parent="edge8" vertex="1" connectable="0">
          <mxGeometry x="1164" y="2149" as="geometry" />
        </mxCell>
        <mxCell id="label52" value="" style="edgeLabel;resizable=0;html=1;align=left;verticalAlign=top;strokeColor=default;" parent="edge8" vertex="1" connectable="0">
          <mxGeometry x="460" y="2730" as="geometry" />
        </mxCell>
        <mxCell id="label53" value="productCategorizeService" style="edgeLabel;resizable=0;html=1;align=left;verticalAlign=top;strokeColor=default;" parent="edge8" vertex="1" connectable="0">
          <mxGeometry x="1119" y="2226" as="geometry" />
        </mxCell>
        <mxCell id="edge6" value="" style="html=1;rounded=1;edgeStyle=orthogonalEdgeStyle;dashed=0;startArrow=diamondThinstartSize=12;endArrow=openThin;endSize=12;strokeColor=#595959;exitX=1.000;exitY=0.454;exitDx=0;exitDy=0;entryX=0.000;entryY=0.500;entryDx=0;entryDy=0;" parent="1" source="node22" target="node6" edge="1">
          <mxGeometry width="50" height="50" relative="1" as="geometry">
            <Array as="points">
              <mxPoint x="492" y="3652" />
              <mxPoint x="492" y="2718" />
            </Array>
          </mxGeometry>
        </mxCell>
        <mxCell id="label36" value="" style="edgeLabel;resizable=0;html=1;align=left;verticalAlign=top;strokeColor=default;" parent="edge6" vertex="1" connectable="0">
          <mxGeometry x="488" y="2698" as="geometry" />
        </mxCell>
        <mxCell id="label40" value="" style="edgeLabel;resizable=0;html=1;align=left;verticalAlign=top;strokeColor=default;" parent="edge6" vertex="1" connectable="0">
          <mxGeometry x="446" y="3637" as="geometry" />
        </mxCell>
        <mxCell id="label41" value="searchDictionaryService" style="edgeLabel;resizable=0;html=1;align=left;verticalAlign=top;strokeColor=default;" parent="edge6" vertex="1" connectable="0">
          <mxGeometry x="492" y="3642" as="geometry" />
        </mxCell>
        <mxCell id="edge2" value="" style="html=1;rounded=1;edgeStyle=orthogonalEdgeStyle;dashed=1;startArrow=none;endArrow=block;endSize=12;strokeColor=#008200;exitX=0.500;exitY=0.000;exitDx=0;exitDy=0;entryX=0.500;entryY=1.000;entryDx=0;entryDy=0;" parent="1" source="node22" target="node7" edge="1">
          <mxGeometry width="50" height="50" relative="1" as="geometry">
            <Array as="points" />
          </mxGeometry>
        </mxCell>
        <mxCell id="edge14" value="" style="html=1;rounded=1;edgeStyle=orthogonalEdgeStyle;dashed=0;startArrow=diamondThinstartSize=12;endArrow=openThin;endSize=12;strokeColor=#595959;exitX=0.000;exitY=0.500;exitDx=0;exitDy=0;entryX=0.000;entryY=0.500;entryDx=0;entryDy=0;" parent="1" source="node22" target="node18" edge="1">
          <mxGeometry width="50" height="50" relative="1" as="geometry">
            <Array as="points">
              <mxPoint x="-278" y="3667" />
              <mxPoint x="-278" y="2559" />
            </Array>
          </mxGeometry>
        </mxCell>
        <mxCell id="label84" value="" style="edgeLabel;resizable=0;html=1;align=left;verticalAlign=top;strokeColor=default;" parent="edge14" vertex="1" connectable="0">
          <mxGeometry x="-275" y="2543" as="geometry" />
        </mxCell>
        <mxCell id="label88" value="" style="edgeLabel;resizable=0;html=1;align=left;verticalAlign=top;strokeColor=default;" parent="edge14" vertex="1" connectable="0">
          <mxGeometry x="-293" y="2918" as="geometry" />
        </mxCell>
        <mxCell id="label89" value="searchProductsService" style="edgeLabel;resizable=0;html=1;align=left;verticalAlign=top;strokeColor=default;" parent="edge14" vertex="1" connectable="0">
          <mxGeometry x="-326" y="2614" as="geometry" />
        </mxCell>
        <mxCell id="edge4" value="" style="html=1;rounded=1;edgeStyle=orthogonalEdgeStyle;dashed=0;startArrow=none;endArrow=block;endSize=12;strokeColor=#008200;exitX=0.216;exitY=0.001;exitDx=0;exitDy=0;entryX=0.75;entryY=1;entryDx=0;entryDy=0;" parent="1" source="node2" target="node7" edge="1">
          <mxGeometry width="50" height="50" relative="1" as="geometry">
            <Array as="points">
              <mxPoint x="214" y="3200" />
              <mxPoint x="280" y="3200" />
            </Array>
          </mxGeometry>
        </mxCell>
        <mxCell id="edge16" value="" style="html=1;rounded=1;edgeStyle=orthogonalEdgeStyle;dashed=0;startArrow=diamondThinstartSize=12;endArrow=openThin;endSize=12;strokeColor=#595959;exitX=0.000;exitY=0.500;exitDx=0;exitDy=0;entryX=0.500;entryY=0.000;entryDx=0;entryDy=0;" parent="1" source="node11" target="node20" edge="1">
          <mxGeometry width="50" height="50" relative="1" as="geometry">
            <Array as="points">
              <mxPoint x="361" y="2007" />
            </Array>
          </mxGeometry>
        </mxCell>
        <mxCell id="label96" value="" style="edgeLabel;resizable=0;html=1;align=left;verticalAlign=top;strokeColor=default;" parent="edge16" vertex="1" connectable="0">
          <mxGeometry x="361" y="1997" as="geometry" />
        </mxCell>
        <mxCell id="label100" value="*" style="edgeLabel;resizable=0;html=1;align=left;verticalAlign=top;strokeColor=default;" parent="edge16" vertex="1" connectable="0">
          <mxGeometry x="361" y="2083" as="geometry" />
        </mxCell>
        <mxCell id="label101" value="searchProducts" style="edgeLabel;resizable=0;html=1;align=left;verticalAlign=top;strokeColor=default;" parent="edge16" vertex="1" connectable="0">
          <mxGeometry x="270" y="2083" as="geometry" />
        </mxCell>
        <mxCell id="edge12" value="" style="html=1;rounded=1;edgeStyle=orthogonalEdgeStyle;dashed=0;startArrow=diamondThinstartSize=12;endArrow=openThin;endSize=12;strokeColor=#595959;exitX=1.000;exitY=0.500;exitDx=0;exitDy=0;entryX=0.000;entryY=0.500;entryDx=0;entryDy=0;" parent="1" source="node19" target="node5" edge="1">
          <mxGeometry width="50" height="50" relative="1" as="geometry">
            <Array as="points">
              <mxPoint x="1112" y="3739" />
              <mxPoint x="1112" y="2807" />
            </Array>
          </mxGeometry>
        </mxCell>
        <mxCell id="label72" value="" style="edgeLabel;resizable=0;html=1;align=left;verticalAlign=top;strokeColor=default;" parent="edge12" vertex="1" connectable="0">
          <mxGeometry x="1136" y="2787" as="geometry" />
        </mxCell>
        <mxCell id="label76" value="" style="edgeLabel;resizable=0;html=1;align=left;verticalAlign=top;strokeColor=default;" parent="edge12" vertex="1" connectable="0">
          <mxGeometry x="1098" y="3724" as="geometry" />
        </mxCell>
        <mxCell id="label77" value="externalOperationsService" style="edgeLabel;resizable=0;html=1;align=left;verticalAlign=top;strokeColor=default;" parent="edge12" vertex="1" connectable="0">
          <mxGeometry x="1076" y="2871" as="geometry" />
        </mxCell>
        <mxCell id="edge11" value="" style="html=1;rounded=1;edgeStyle=orthogonalEdgeStyle;dashed=0;startArrow=diamondThinstartSize=12;endArrow=openThin;endSize=12;strokeColor=#595959;exitX=0.000;exitY=0.500;exitDx=0;exitDy=0;entryX=0.000;entryY=0.500;entryDx=0;entryDy=0;" parent="1" source="node19" target="node12" edge="1">
          <mxGeometry width="50" height="50" relative="1" as="geometry">
            <Array as="points">
              <mxPoint x="475" y="3739" />
              <mxPoint x="475" y="2431" />
              <mxPoint x="1129" y="2431" />
              <mxPoint x="1129" y="2164" />
            </Array>
          </mxGeometry>
        </mxCell>
        <mxCell id="label66" value="" style="edgeLabel;resizable=0;html=1;align=left;verticalAlign=top;strokeColor=default;" parent="edge11" vertex="1" connectable="0">
          <mxGeometry x="1168" y="2144" as="geometry" />
        </mxCell>
        <mxCell id="label70" value="" style="edgeLabel;resizable=0;html=1;align=left;verticalAlign=top;strokeColor=default;" parent="edge11" vertex="1" connectable="0">
          <mxGeometry x="488" y="3735" as="geometry" />
        </mxCell>
        <mxCell id="label71" value="productCategorizeService" style="edgeLabel;resizable=0;html=1;align=left;verticalAlign=top;strokeColor=default;" parent="edge11" vertex="1" connectable="0">
          <mxGeometry x="1111" y="2226" as="geometry" />
        </mxCell>
        <mxCell id="edge9" value="" style="html=1;rounded=1;edgeStyle=orthogonalEdgeStyle;dashed=0;startArrow=diamondThinstartSize=12;endArrow=openThin;endSize=12;strokeColor=#595959;exitX=0.000;exitY=0.419;exitDx=0;exitDy=0;entryX=0.000;entryY=0.500;entryDx=0;entryDy=0;" parent="1" source="node19" target="node6" edge="1">
          <mxGeometry width="50" height="50" relative="1" as="geometry">
            <Array as="points">
              <mxPoint x="492" y="3724" />
              <mxPoint x="492" y="2718" />
            </Array>
          </mxGeometry>
        </mxCell>
        <mxCell id="label54" value="" style="edgeLabel;resizable=0;html=1;align=left;verticalAlign=top;strokeColor=default;" parent="edge9" vertex="1" connectable="0">
          <mxGeometry x="491" y="2708" as="geometry" />
        </mxCell>
        <mxCell id="label58" value="" style="edgeLabel;resizable=0;html=1;align=left;verticalAlign=top;strokeColor=default;" parent="edge9" vertex="1" connectable="0">
          <mxGeometry x="494" y="3764" as="geometry" />
        </mxCell>
        <mxCell id="label59" value="searchDictionaryService" style="edgeLabel;resizable=0;html=1;align=left;verticalAlign=top;strokeColor=default;" parent="edge9" vertex="1" connectable="0">
          <mxGeometry x="356" y="2708" as="geometry" />
        </mxCell>
        <mxCell id="edge0" value="" style="html=1;rounded=1;edgeStyle=orthogonalEdgeStyle;dashed=1;startArrow=none;endArrow=block;endSize=12;strokeColor=#008200;exitX=0.500;exitY=1.000;exitDx=0;exitDy=0;entryX=0.000;entryY=0.328;entryDx=0;entryDy=0;" parent="1" source="node19" target="node18" edge="1">
          <mxGeometry width="50" height="50" relative="1" as="geometry">
            <Array as="points">
              <mxPoint x="801" y="3849" />
              <mxPoint x="-293" y="3849" />
              <mxPoint x="-293" y="2544" />
            </Array>
          </mxGeometry>
        </mxCell>
      </root>
    </mxGraphModel>
  </diagram>
</mxfile>
